<svg xmlns="http://www.w3.org/2000/svg" viewBox="0 0 128 128">
  <rect width="128" height="128" fill="#0b0b0c"/>
  <g fill="none" stroke="#ffffff" stroke-width="7" stroke-linecap="round" transform="translate(4 26)">
    <path d="M60 64 C54 52 44 44 20 26" />
    <path d="M46 47 C40 38 38 28 36 14" />
    <path d="M34 38 C28 30 24 22 20 8" />
    <path d="M24 29 C18 24 12 20 6 16" />
    <path d="M60 64 C66 52 76 44 100 26" />
    <path d="M74 47 C80 38 82 28 84 14" />
    <path d="M86 38 C92 30 96 22 100 8" />
    <path d="M96 29 C102 24 108 20 114 16" />
  </g>
</svg>
